 http://desibbrg.org/images/66952052392581364616.gif 
http://desibbrg.org/images/75842035641803650906.jpg 
http://desibbrg.org/images/85558648376954208609.jpg 
http://desibbrg.org/images/40665897654425296613.jpg 
http://desibbrg.org/images/92544132708085310808.jpg 
http://desibbrg.org/images/71809792379564789346.jpg

Sample Video Only -

Media Info - 
General
Complete name                    : Singham (2011) [3D Movie] -  XviD Mp3 - 1.6GB - IcTv Xclusive.avi
Format                           : AVI
Format/Info                      : Audio Video Interleave
File size                        : 1.60 GiB
Duration                         : 2h 22mn
Overall bit rate                 : 1 616 Kbps

Video
ID                               : 0
Format                           : MPEG-4 Visual
Format profile                   : Advanced Simple@L5
Format settings, BVOP            : Yes
Format settings, QPel            : No
Format settings, GMC             : No warppoints
Format settings, Matrix          : Default (MPEG)
Codec ID                         : XVID
Codec ID/Hint                    : XviD
Duration                         : 2h 22mn
Bit rate                         : 1 515 Kbps
Width                            : 704 pixels
Height                           : 288 pixels
Display aspect ratio             : 2.40:1
Frame rate                       : 23.976 fps
Color space                      : YUV
Chroma subsampling               : 4:2:0
Bit depth                        : 8 bits
Scan type                        : Progressive
Compression mode                 : Lossy
Bits/(Pixel*Frame)               : 0.312
Stream size                      : 1.50 GiB (94%)
Writing library                  : XviD 1.2.1 (UTC 2008-12-04)

Audio
ID                               : 1
Format                           : MPEG Audio
Format version                   : Version 1
Format profile                   : Layer 3
Mode                             : Joint stereo
Mode extension                   : MS Stereo
Codec ID                         : 55
Codec ID/Hint                    : MP3
Duration                         : 2h 22mn
Bit rate mode                    : Constant
Bit rate                         : 96.0 Kbps
Channel(s)                       : 2 channels
Sampling rate                    : 32.0 KHz
Compression mode                 : Lossy
Stream size                      : 97.6 MiB (6%)
Alignment                        : Aligned on interleaves
Interleave, duration             : 167 ms (4.00 video frames)
Interleave, preload duration     : 216 ms
Title                            : SINGHAM (2011) 3D - Shammu
Writing library                  : LAME3.99r
Encoding settings                : -m j -V 4 -q 2 -lowpass 15.1 -b 96

Ripper : shammu4real

Seeding 24x7... Extreme Seeding...


Enjoy!
